<svg width="25" height="25" viewBox="0 0 25 25" fill="none" xmlns="http://www.w3.org/2000/svg">
<circle cx="12.4552" cy="12.5532" r="11.5" stroke="#B1B1B1" stroke-dasharray="1 1"/>
<path fill-rule="evenodd" clip-rule="evenodd" d="M15.1063 6.91503C15.0788 6.7107 14.905 6.55322 14.6947 6.55322C14.4653 6.55322 14.2793 6.74064 14.2793 6.97183V7.43462H10.636V6.97183L10.6322 6.91503C10.6047 6.7107 10.4309 6.55322 10.2207 6.55322C9.99125 6.55322 9.80527 6.74064 9.80527 6.97183V7.44501C8.1031 7.56226 7.05518 8.66517 7.05518 10.4447V15.4956C7.05518 17.4055 8.23018 18.5532 10.1129 18.5532H14.7974C16.6824 18.5532 17.8551 17.4248 17.8551 15.5379V10.4447C17.8606 8.66452 16.816 7.56191 15.1101 7.44496V6.97183L15.1063 6.91503ZM14.2793 8.2718V8.80854L14.2831 8.86534C14.3106 9.06967 14.4844 9.22715 14.6947 9.22715C14.9241 9.22715 15.1101 9.03973 15.1101 8.80854V8.28417C16.3513 8.38742 17.0284 9.13481 17.0244 10.4434V10.6858H7.88596V10.4447C7.88596 9.13695 8.56673 8.38798 9.80527 8.28426V8.80854L9.80907 8.86534C9.83657 9.06967 10.0104 9.22715 10.2207 9.22715C10.4501 9.22715 10.636 9.03973 10.636 8.80854V8.2718H14.2793ZM7.88596 11.523V15.4956C7.88596 16.9372 8.68331 17.716 10.1129 17.716H14.7974C16.2319 17.716 17.0244 16.9535 17.0244 15.5378L17.0244 11.523H7.88596ZM15.3359 13.2842C15.3359 13.053 15.1499 12.8656 14.9205 12.8656L14.859 12.8694C14.6563 12.8971 14.5 13.0723 14.5 13.2842C14.5 13.5154 14.686 13.7028 14.9205 13.7028L14.9769 13.699C15.1797 13.6713 15.3359 13.4961 15.3359 13.2842ZM12.4628 12.8656C12.6922 12.8656 12.8782 13.053 12.8782 13.2842C12.8782 13.4961 12.7219 13.6713 12.5192 13.699L12.4628 13.7028C12.2283 13.7028 12.0423 13.5154 12.0423 13.2842C12.0423 13.0723 12.1986 12.8971 12.4013 12.8694L12.4628 12.8656ZM10.4154 13.2842C10.4154 13.053 10.2295 12.8656 10.0001 12.8656L9.93856 12.8694C9.73581 12.8971 9.57954 13.0723 9.57954 13.2842C9.57954 13.5154 9.76551 13.7028 9.99492 13.7028L10.0564 13.699C10.2592 13.6713 10.4154 13.4961 10.4154 13.2842ZM14.9205 15.0348C15.1499 15.0348 15.3359 15.2222 15.3359 15.4534C15.3359 15.6653 15.1797 15.8405 14.9769 15.8682L14.9205 15.872C14.686 15.872 14.5 15.6846 14.5 15.4534C14.5 15.2415 14.6563 15.0664 14.859 15.0386L14.9205 15.0348ZM12.8782 15.4534C12.8782 15.2222 12.6922 15.0348 12.4628 15.0348L12.4013 15.0386C12.1986 15.0664 12.0423 15.2415 12.0423 15.4534C12.0423 15.6846 12.2283 15.872 12.4628 15.872L12.5192 15.8682C12.7219 15.8405 12.8782 15.6653 12.8782 15.4534ZM10.0001 15.0348C10.2295 15.0348 10.4154 15.2222 10.4154 15.4534C10.4154 15.6653 10.2592 15.8405 10.0564 15.8682L9.99492 15.872C9.76551 15.872 9.57954 15.6846 9.57954 15.4534C9.57954 15.2415 9.73581 15.0664 9.93856 15.0386L10.0001 15.0348Z" fill="#B1B1B1"/>
</svg>
