<svg width="18" height="18" viewBox="0 0 18 18" fill="none" xmlns="http://www.w3.org/2000/svg">
<g clip-path="url(#clip0_16163_200)">
<path d="M14.5079 17.0486C14.6622 17.0486 14.8145 17.1073 14.9303 17.2192C15.6709 17.9343 16.7511 18.1724 17.7114 17.8743C17.0934 16.5868 17.0077 15.1118 17.4866 13.7461C18.081 12.0469 18.2299 10.3438 17.5535 8.63562C16.9593 7.13508 15.8125 5.8884 14.3611 5.17749C14.4504 5.65351 14.4954 6.13853 14.4954 6.62867C14.4954 8.70914 13.6954 10.6659 12.2429 12.1385C10.7901 13.6113 8.84273 14.4394 6.75949 14.4704C6.37245 14.4764 5.98714 14.4537 5.6062 14.4035C6.75112 16.4103 8.9104 17.7174 11.2832 17.7526C12.3212 17.7686 13.3178 17.5511 14.246 17.1079C14.3296 17.0679 14.4191 17.0486 14.5079 17.0486Z" fill="white"/>
<path d="M6.77613 0.0015667C3.08052 -0.0718145 0.00844265 2.91788 -0.000468242 6.61269C-0.00265141 7.51541 0.173561 8.39064 0.523314 9.21418C0.528393 9.22617 0.533116 9.23828 0.537393 9.25058C1.01631 10.6163 0.93072 12.0913 0.31266 13.3788C1.27303 13.6767 2.35312 13.4387 3.0937 12.7236C3.27615 12.5473 3.54914 12.503 3.77806 12.6124C4.70609 13.0556 5.70286 13.2738 6.7408 13.2571C10.4075 13.2027 13.2797 10.2912 13.2797 6.629C13.2797 3.04669 10.3622 0.0736558 6.77613 0.0015667ZM3.09771 7.619C2.56676 7.619 2.13632 7.18927 2.13632 6.65921C2.13632 6.12914 2.56676 5.69941 3.09771 5.69941C3.62867 5.69941 4.05911 6.12914 4.05911 6.65921C4.05907 7.18927 3.62867 7.619 3.09771 7.619ZM6.63962 7.619C6.10866 7.619 5.67822 7.18927 5.67822 6.65921C5.67822 6.12914 6.10866 5.69941 6.63962 5.69941C7.17057 5.69941 7.60101 6.12914 7.60101 6.65921C7.60101 7.18927 7.17057 7.619 6.63962 7.619ZM10.1816 7.619C9.65061 7.619 9.22016 7.18927 9.22016 6.65921C9.22016 6.12914 9.65061 5.69941 10.1816 5.69941C10.7125 5.69941 11.143 6.12914 11.143 6.65921C11.143 7.18927 10.7125 7.619 10.1816 7.619Z" fill="white"/>
<path d="M6.63962 7.619C6.10866 7.619 5.67822 7.18927 5.67822 6.65921C5.67822 6.12914 6.10866 5.69941 6.63962 5.69941C7.17057 5.69941 7.60101 6.12914 7.60101 6.65921C7.60101 7.18927 7.17057 7.619 6.63962 7.619Z" fill="white"/>
<path d="M10.1816 7.619C9.65061 7.619 9.22016 7.18927 9.22016 6.65921C9.22016 6.12914 9.65061 5.69941 10.1816 5.69941C10.7125 5.69941 11.143 6.12914 11.143 6.65921C11.143 7.18927 10.7125 7.619 10.1816 7.619Z" fill="white"/>
<path d="M3.09771 7.619C2.56676 7.619 2.13632 7.18927 2.13632 6.65921C2.13632 6.12914 2.56676 5.69941 3.09771 5.69941C3.62867 5.69941 4.05911 6.12914 4.05911 6.65921C4.05907 7.18927 3.62867 7.619 3.09771 7.619Z" fill="white"/>
<path d="M4.50957 9.77531C4.57994 9.82808 4.66399 9.85387 4.74773 9.85387C4.85981 9.85387 4.97125 9.80769 5.04639 9.71864L9.43516 4.5429C9.56698 4.38758 9.53991 4.16121 9.37498 4.03708C9.21037 3.91325 8.96967 3.93843 8.83817 4.09375L4.44939 9.26979C4.3179 9.4248 4.34464 9.65148 4.50957 9.77531Z" fill="#5DBC56"/>
<path fill-rule="evenodd" clip-rule="evenodd" d="M8.82416 9.85387C8.05173 9.85387 7.42322 9.26199 7.42322 8.5346C7.42322 7.8072 8.05173 7.21532 8.82416 7.21532C9.59659 7.21532 10.2251 7.8072 10.2251 8.5346C10.2251 9.26199 9.59659 9.85387 8.82416 9.85387ZM8.18737 8.5346C8.18737 8.20388 8.47297 7.93493 8.82416 7.93493C9.17535 7.93493 9.46095 8.20388 9.46095 8.5346C9.46095 8.86531 9.17535 9.13426 8.82416 9.13426C8.47297 9.13426 8.18737 8.86531 8.18737 8.5346Z" fill="#5DBC56"/>
<path fill-rule="evenodd" clip-rule="evenodd" d="M5.25812 6.49572C4.48569 6.49572 3.85718 5.90385 3.85718 5.17645C3.85718 4.44905 4.48569 3.85718 5.25812 3.85718C6.03055 3.85718 6.65906 4.44905 6.65906 5.17645C6.65906 5.90385 6.03055 6.49572 5.25812 6.49572ZM4.62133 5.17645C4.62133 4.84573 4.90693 4.57678 5.25812 4.57678C5.60931 4.57678 5.89491 4.84573 5.89491 5.17645C5.89491 5.50717 5.60931 5.77612 5.25812 5.77612C4.90693 5.77612 4.62133 5.50717 4.62133 5.17645Z" fill="#5DBC56"/>
</g>
<defs>
<clipPath id="clip0_16163_200">
<rect width="18" height="18" fill="white"/>
</clipPath>
</defs>
</svg>
