<svg width="16" height="19" viewBox="0 0 16 19" fill="none" xmlns="http://www.w3.org/2000/svg">
<path d="M16 3C16 1.34315 14.6569 0 13 0H4.11283C2.48462 0 1.1647 1.31993 1.1647 2.94814H0.545951C0.24444 2.94814 0 3.19258 0 3.49409C0 3.7956 0.24444 4.04004 0.545951 4.04004H1.1647V5.85987H0.545951C0.24444 5.85987 0 6.10431 0 6.40582C0 6.70734 0.24444 6.95178 0.545951 6.95178H1.1647V8.77161H0.545951C0.24444 8.77161 0 9.01605 0 9.31756C0 9.61907 0.24444 9.86351 0.545951 9.86351H1.1647V11.6834H0.545951C0.24444 11.6834 0 11.9278 0 12.2293C0 12.5308 0.24444 12.7753 0.545951 12.7753H1.1647V14.5951H0.545951C0.24444 14.5951 0 14.8395 0 15.141C0 15.4426 0.24444 15.687 0.545951 15.687H1.1647C1.1647 17.3152 2.48462 18.6351 4.11283 18.6351H13C14.6569 18.6351 16 17.292 16 15.6351V3ZM11.96 13.6488C11.6585 13.6488 11.414 13.4043 11.414 13.1028C11.414 11.6537 10.5291 10.1547 9.04823 10.1547C7.56735 10.1547 6.68244 11.6537 6.68244 13.1028C6.68244 13.4043 6.438 13.6488 6.13649 13.6488C5.83498 13.6488 5.59054 13.4043 5.59054 13.1028C5.59054 11.7157 6.2238 10.2786 7.38344 9.54482C6.82173 9.07043 6.46406 8.3616 6.46406 7.57052C6.46406 6.14562 7.62333 4.98635 9.04823 4.98635C10.4731 4.98635 11.6324 6.14562 11.6324 7.57052C11.6324 8.3616 11.2747 9.07043 10.713 9.54482C11.8727 10.2786 12.5059 11.7155 12.5059 13.1028C12.5059 13.4043 12.2615 13.6488 11.96 13.6488Z" fill="white"/>
<path d="M8.94637 9.06266C9.77052 9.06266 10.4386 8.39455 10.4386 7.57039C10.4386 6.74624 9.77052 6.07812 8.94637 6.07812C8.12221 6.07812 7.4541 6.74624 7.4541 7.57039C7.4541 8.39455 8.12221 9.06266 8.94637 9.06266Z" fill="white"/>
</svg>
