<svg width="19" height="19" viewBox="0 0 19 19" fill="none" xmlns="http://www.w3.org/2000/svg">
<g clip-path="url(#clip0_16163_267)">
<path d="M10.3154 1.48037L1.615 0.158287C1.21125 0.094954 0.799583 0.205787 0.490833 0.467037C0.182083 0.736204 0 1.12412 0 1.52787V18.2083C0 18.6437 0.35625 19 0.791667 19H3.36458V14.8437C3.36458 14.0758 3.98208 13.4583 4.75 13.4583H6.72917C7.49708 13.4583 8.11458 14.0758 8.11458 14.8437V19H11.4792V2.84995C11.4792 2.16912 10.9883 1.5912 10.3154 1.48037ZM4.35417 11.677H3.16667C2.83892 11.677 2.57292 11.411 2.57292 11.0833C2.57292 10.7555 2.83892 10.4895 3.16667 10.4895H4.35417C4.68192 10.4895 4.94792 10.7555 4.94792 11.0833C4.94792 11.411 4.68192 11.677 4.35417 11.677ZM4.35417 9.30204H3.16667C2.83892 9.30204 2.57292 9.03604 2.57292 8.70829C2.57292 8.38054 2.83892 8.11454 3.16667 8.11454H4.35417C4.68192 8.11454 4.94792 8.38054 4.94792 8.70829C4.94792 9.03604 4.68192 9.30204 4.35417 9.30204ZM4.35417 6.92704H3.16667C2.83892 6.92704 2.57292 6.66104 2.57292 6.33329C2.57292 6.00554 2.83892 5.73954 3.16667 5.73954H4.35417C4.68192 5.73954 4.94792 6.00554 4.94792 6.33329C4.94792 6.66104 4.68192 6.92704 4.35417 6.92704ZM4.35417 4.55204H3.16667C2.83892 4.55204 2.57292 4.28604 2.57292 3.95829C2.57292 3.63054 2.83892 3.36454 3.16667 3.36454H4.35417C4.68192 3.36454 4.94792 3.63054 4.94792 3.95829C4.94792 4.28604 4.68192 4.55204 4.35417 4.55204ZM8.3125 11.677H7.125C6.79725 11.677 6.53125 11.411 6.53125 11.0833C6.53125 10.7555 6.79725 10.4895 7.125 10.4895H8.3125C8.64025 10.4895 8.90625 10.7555 8.90625 11.0833C8.90625 11.411 8.64025 11.677 8.3125 11.677ZM8.3125 9.30204H7.125C6.79725 9.30204 6.53125 9.03604 6.53125 8.70829C6.53125 8.38054 6.79725 8.11454 7.125 8.11454H8.3125C8.64025 8.11454 8.90625 8.38054 8.90625 8.70829C8.90625 9.03604 8.64025 9.30204 8.3125 9.30204ZM8.3125 6.92704H7.125C6.79725 6.92704 6.53125 6.66104 6.53125 6.33329C6.53125 6.00554 6.79725 5.73954 7.125 5.73954H8.3125C8.64025 5.73954 8.90625 6.00554 8.90625 6.33329C8.90625 6.66104 8.64025 6.92704 8.3125 6.92704ZM8.3125 4.55204H7.125C6.79725 4.55204 6.53125 4.28604 6.53125 3.95829C6.53125 3.63054 6.79725 3.36454 7.125 3.36454H8.3125C8.64025 3.36454 8.90625 3.63054 8.90625 3.95829C8.90625 4.28604 8.64025 4.55204 8.3125 4.55204Z" fill="white"/>
<path d="M17.9074 8.58321L12.2708 7.40283V19H17.6145C18.3785 19 18.9999 18.3785 18.9999 17.6145V9.93696C18.9999 9.28304 18.5542 8.7265 17.9074 8.58321ZM16.0312 16.625H14.8437C14.5159 16.625 14.2499 16.359 14.2499 16.0312C14.2499 15.7035 14.5159 15.4375 14.8437 15.4375H16.0312C16.3589 15.4375 16.6249 15.7035 16.6249 16.0312C16.6249 16.359 16.3589 16.625 16.0312 16.625ZM16.0312 14.25H14.8437C14.5159 14.25 14.2499 13.984 14.2499 13.6562C14.2499 13.3285 14.5159 13.0625 14.8437 13.0625H16.0312C16.3589 13.0625 16.6249 13.3285 16.6249 13.6562C16.6249 13.984 16.3589 14.25 16.0312 14.25ZM16.0312 11.875H14.8437C14.5159 11.875 14.2499 11.609 14.2499 11.2812C14.2499 10.9535 14.5159 10.6875 14.8437 10.6875H16.0312C16.3589 10.6875 16.6249 10.9535 16.6249 11.2812C16.6249 11.609 16.3589 11.875 16.0312 11.875Z" fill="white"/>
</g>
<defs>
<clipPath id="clip0_16163_267">
<rect width="19" height="19" fill="white"/>
</clipPath>
</defs>
</svg>
