<svg width="19" height="21" viewBox="0 0 19 21" fill="none" xmlns="http://www.w3.org/2000/svg">
<path fill-rule="evenodd" clip-rule="evenodd" d="M13.172 1.43995C12.8852 0.595836 12.1404 0.0495605 11.2968 0.0495605H7.16883L7.01191 0.055892C6.18211 0.123054 5.47402 0.718526 5.25595 1.55489L5.00834 2.81769L4.97933 2.92885C4.86076 3.28884 4.52927 3.53869 4.15063 3.53869H0.9643L0.865055 3.54554C0.508063 3.5952 0.23291 3.90901 0.23291 4.28872C0.23291 4.70294 0.560365 5.03874 0.9643 5.03874L4.15063 5.03874H14.315L17.5015 5.03874L17.6008 5.0319C17.9578 4.98223 18.2329 4.66843 18.2329 4.28872C18.2329 3.87449 17.9055 3.53869 17.5015 3.53869H14.315L14.203 3.53133C13.8354 3.48276 13.5316 3.19828 13.4572 2.81739L13.2203 1.60165L13.172 1.43995ZM12.1472 3.53869C12.1139 3.45401 12.0851 3.36677 12.0612 3.27724L12.0229 3.11164L11.7965 1.94236C11.7436 1.73947 11.5803 1.59094 11.3831 1.55698L11.2968 1.54962H7.16883C6.96362 1.54962 6.7812 1.67279 6.70543 1.82759L6.67973 1.8956L6.4427 3.11194C6.41378 3.26004 6.3719 3.40267 6.31842 3.53869H12.1472ZM16.2113 6.76973C16.5804 6.80025 16.8633 7.10672 16.8829 7.47561L16.8734 7.6813L16.5589 11.5325L16.229 15.2909C16.1592 16.0412 16.0967 16.6741 16.0428 17.1722C15.8554 18.9083 14.7284 19.9819 13.0295 20.0137C10.3823 20.0626 7.83768 20.0621 5.36664 20.0086C3.71689 19.974 2.60658 18.8888 2.42246 17.1793L2.29521 15.9197L2.07285 13.4766L1.84507 10.7956L1.58463 7.57744C1.55226 7.16454 1.85242 6.80291 2.25506 6.76972C2.62414 6.73929 2.95121 6.9954 3.0281 7.35633L3.05802 7.65129L3.30257 10.6683L3.5696 13.7954C3.68937 15.1492 3.79325 16.2448 3.87637 17.0144C3.98129 17.9886 4.49429 18.49 5.39703 18.5089C7.84876 18.5619 10.3744 18.5624 13.003 18.5139C13.9606 18.496 14.4818 17.9995 14.5889 17.0069L14.7156 15.7541C14.7527 15.3681 14.7923 14.9418 14.8343 14.4788L15.1016 11.4034L15.4235 7.45706C15.4533 7.07858 15.7521 6.78846 16.1119 6.76838L16.2113 6.76973Z" fill="#00AF68"/>
</svg>
