<svg width="14" height="18" viewBox="0 0 14 18" fill="none" xmlns="http://www.w3.org/2000/svg">
<path d="M6.99655 0.3577C6.7879 1.60472 6.10382 4.4216 3.99698 6.57275C1.52064 8.59225 1.12401 9.66556 0.97027 11.1885C0.827187 12.6005 0.959611 15.2291 3.17498 17.2114C3.35585 17.3735 3.63814 17.2383 3.60552 16.9973C3.48795 16.1236 3.58194 14.5737 5.23886 13.2209C6.42164 12.2554 6.93712 11.4302 7.15255 10.832C7.23169 10.6121 7.53045 10.591 7.62056 10.8068C7.9119 11.5046 8.38895 12.4203 9.07658 13.0624C10.1179 14.0348 10.167 15.628 9.47418 17.2396C9.36759 17.4877 9.64989 17.7183 9.85789 17.5462C11.0187 16.5861 12.9214 14.6847 13.1572 12.3796C13.6572 7.44907 9.74387 1.79428 7.66675 0.10959C7.41837 -0.0919392 7.0492 0.0419823 6.99655 0.3577Z" fill="#ED5B43"/>
</svg>
