<svg width="19" height="18" viewBox="0 0 19 18" fill="none" xmlns="http://www.w3.org/2000/svg">
<path d="M18.6823 7.0572L11.3928 0.705535C10.8711 0.251041 10.1974 0 9.49953 0C8.80162 0 8.12797 0.251041 7.60627 0.705535L0.317702 7.0572C0.174077 7.18289 0.0727457 7.34836 0.0271072 7.53173C-0.0185314 7.71509 -0.00632777 7.90772 0.0621044 8.08415C0.130536 8.26057 0.251974 8.41247 0.410359 8.51977C0.568744 8.62707 0.756617 8.68471 0.949135 8.68507H2.84933V15.2055C2.85016 15.9464 3.15072 16.6567 3.68507 17.1806C4.21943 17.7045 4.94393 17.9992 5.69962 18H6.64971V12.411C6.64971 8.71861 12.3503 8.71693 12.3503 12.411V18H13.3004C14.0561 17.9992 14.7806 17.7045 15.3149 17.1806C15.8493 16.6567 16.1498 15.9464 16.1507 15.2055V8.68507H18.0509C18.2434 8.68471 18.4313 8.62707 18.5896 8.51977C18.748 8.41247 18.8695 8.26057 18.9379 8.08415C19.0063 7.90772 19.0185 7.71509 18.9729 7.53173C18.9273 7.34836 18.8259 7.18289 18.6823 7.0572Z" fill="white"/>
</svg>
