<svg width="27" height="23" viewBox="0 0 27 23" fill="none" xmlns="http://www.w3.org/2000/svg">
<path d="M3.99033 23H1.40923C0.632223 23 0 22.3839 0 21.6267V11.9887C0 11.2315 0.632223 10.6154 1.40923 10.6154H3.99077C4.36721 10.6154 4.72083 10.7582 4.98715 11.0173C5.25346 11.2768 5.4 11.6214 5.4 11.9887V21.6267C5.39956 22.3839 4.76734 23 3.99033 23Z" fill="white"/>
<path d="M11.191 23H8.6093C7.83223 23 7.19995 22.3868 7.19995 21.6332V8.44368C7.19995 7.69008 7.83223 7.0769 8.6093 7.0769H11.191C11.9681 7.0769 12.6 7.68966 12.6 8.44326V21.6332C12.6004 22.3868 11.9681 23 11.191 23Z" fill="white"/>
<path d="M18.3909 23H15.8089C15.0318 23 14.3999 22.3887 14.3999 21.6373V4.90068C14.3999 4.14936 15.0322 3.53845 15.8089 3.53845H18.3909C19.168 3.53845 19.7999 4.14936 19.7999 4.90068V21.6373C19.7999 22.3887 19.168 23 18.3909 23Z" fill="white"/>
<path d="M23.0094 23H25.5912C26.3683 23 27.0005 22.377 27.0001 21.6114V1.38819C27.0001 0.622545 26.3683 0 25.5912 0H23.0094C22.2328 0 21.6005 0.622977 21.6001 1.38862V21.6114C21.6001 22.377 22.2324 23 23.0094 23Z" fill="white"/>
</svg>
