<svg width="25" height="25" viewBox="0 0 25 25" fill="none" xmlns="http://www.w3.org/2000/svg">
<circle cx="12.6633" cy="12.1868" r="11.5" stroke="#B1B1B1" stroke-dasharray="1 1"/>
<path d="M10.6013 17.1655C9.42169 17.1655 8.35824 16.455 7.90675 15.3652C7.45526 14.2754 7.70464 13.021 8.53862 12.1868L9.77645 10.9489L10.6013 11.7738L9.36403 13.011C8.9219 13.4532 8.74923 14.0976 8.91106 14.7015C9.07289 15.3055 9.54464 15.7773 10.1486 15.9391C10.7526 16.1009 11.397 15.9282 11.8391 15.4861L13.0764 14.2489L13.9012 15.0743L12.664 16.3115C12.118 16.8602 11.3753 17.1677 10.6013 17.1655ZM11.0137 14.6613L10.1889 13.8364L14.3136 9.7117L15.1385 10.5365L11.0143 14.6607L11.0137 14.6613ZM15.5515 13.424L14.726 12.5992L15.9633 11.3619C16.4114 10.9211 16.5887 10.2738 16.4278 9.66619C16.2668 9.05854 15.7923 8.58391 15.1847 8.42279C14.577 8.26167 13.9297 8.43882 13.4888 8.88686L12.2509 10.1241L11.4261 9.29928L12.664 8.06145C13.8044 6.93093 15.6442 6.93496 16.7797 8.07046C17.9152 9.20596 17.9192 11.0457 16.7887 12.1862L15.5515 13.4234V13.424Z" fill="#B1B1B1"/>
</svg>
