<svg width="18" height="18" viewBox="0 0 18 18" fill="none" xmlns="http://www.w3.org/2000/svg">
<path d="M5.46504 17.535C3.44288 17.535 1.61982 16.3169 0.845846 14.4488C0.0718696 12.5806 0.499376 10.4301 1.92904 9.00002L4.05104 6.87802L5.46504 8.29202L3.34404 10.413C2.58611 11.171 2.2901 12.2757 2.56752 13.311C2.84495 14.3464 3.65366 15.1551 4.68902 15.4325C5.72439 15.71 6.8291 15.414 7.58704 14.656L9.70804 12.535L11.122 13.95L9.00104 16.071C8.06512 17.0116 6.7919 17.5387 5.46504 17.535ZM6.17204 13.242L4.75804 11.828L11.829 4.75702L13.243 6.17102L6.17304 13.241L6.17204 13.242ZM13.951 11.121L12.536 9.70702L14.657 7.58602C15.4253 6.83035 15.7292 5.72069 15.4533 4.679C15.1773 3.63732 14.3639 2.82367 13.3223 2.54746C12.2806 2.27126 11.1709 2.57494 10.415 3.34302L8.29304 5.46402L6.87904 4.05002L9.00104 1.92802C10.9561 -0.0100136 14.11 -0.00310719 16.0566 1.94347C18.0032 3.89005 18.0101 7.04394 16.072 8.99902L13.951 11.12V11.121Z" fill="#33AE71"/>
</svg>
