<svg width="14" height="14" viewBox="0 0 14 14" fill="none" xmlns="http://www.w3.org/2000/svg">
<path d="M4.93795 11.9788C3.75836 11.9788 2.69491 11.2682 2.24342 10.1784C1.79193 9.08865 2.04131 7.83422 2.87529 7L4.11312 5.76216L4.93795 6.587L3.7007 7.82425C3.25857 8.26638 3.0859 8.9108 3.24773 9.51476C3.40956 10.1187 3.88131 10.5905 4.48527 10.7523C5.08924 10.9141 5.73366 10.7415 6.17579 10.2993L7.41304 9.06208L8.23787 9.8875L7.00062 11.1247C6.45466 11.6734 5.71195 11.9809 4.93795 11.9788ZM5.35037 9.4745L4.52554 8.64966L8.65029 4.52491L9.47512 5.34975L5.35095 9.47391L5.35037 9.4745ZM9.88812 8.23725L9.0627 7.41241L10.3 6.17516C10.7481 5.73436 10.9254 5.08705 10.7644 4.4794C10.6035 3.87175 10.1289 3.39713 9.52132 3.23601C8.91371 3.07489 8.26637 3.25203 7.82545 3.70008L6.58762 4.93733L5.76279 4.1125L7.00062 2.87466C8.14109 1.74414 9.98085 1.74817 11.1164 2.88368C12.2519 4.01918 12.2559 5.85895 11.1254 6.99941L9.88812 8.23666V8.23725Z" fill="#B1B1B1"/>
</svg>
