<svg width="16" height="16" viewBox="0 0 16 16" fill="none" xmlns="http://www.w3.org/2000/svg">
<g clip-path="url(#clip0_5_10630)">
<path d="M6.5 8.00006C6.5 7.17163 7.17157 6.50006 8 6.50006C8.82843 6.50006 9.5 7.17163 9.5 8.00006C9.5 8.82849 8.82843 9.50006 8 9.50006C7.17157 9.50006 6.5 8.82849 6.5 8.00006ZM6.5 1.50006C6.5 0.671634 7.17157 6.09334e-05 8 6.09696e-05C8.82843 6.10058e-05 9.5 0.671634 9.5 1.50006C9.5 2.32849 8.82843 3.00006 8 3.00006C7.17157 3.00006 6.5 2.32849 6.5 1.50006ZM6.5 14.5001C6.5 13.6716 7.17157 13.0001 8 13.0001C8.82843 13.0001 9.5 13.6716 9.5 14.5001C9.5 15.3285 8.82843 16.0001 8 16.0001C7.17157 16.0001 6.5 15.3285 6.5 14.5001Z" fill="#828282"/>
</g>
<defs>
<clipPath id="clip0_5_10630">
<rect width="16" height="16" fill="white" transform="translate(16) rotate(90)"/>
</clipPath>
</defs>
</svg>
