<svg width="25" height="25" viewBox="0 0 25 25" fill="none" xmlns="http://www.w3.org/2000/svg">
<circle cx="12.9552" cy="12.5532" r="11.5" stroke="#B1B1B1" stroke-dasharray="1 1"/>
<path fill-rule="evenodd" clip-rule="evenodd" d="M12.9769 6.55322H12.9341C10.9126 6.55322 9.05915 8.01996 8.87933 9.9618C8.86734 10.1007 8.85917 10.2427 8.85389 10.3956L8.8465 10.7531L8.84504 11.0736L8.85406 11.0371C8.77064 11.4439 8.57837 11.8212 8.29715 12.1295L8.25684 12.1813C8.01605 12.5471 7.87769 12.9705 7.85627 13.4077L7.85577 13.5507C7.84347 14.1257 8.04052 14.6947 8.4112 15.1466C8.91389 15.6774 9.5646 15.994 10.263 16.0612C12.0492 16.2552 13.8564 16.2552 15.6476 16.0607C16.3412 15.9968 16.9939 15.6793 17.4755 15.1681C17.8392 14.7331 18.0376 14.211 18.0546 13.6704L18.0552 13.4285C18.0353 12.972 17.8961 12.5482 17.6524 12.184L17.6154 12.1365L17.525 12.0301C17.3218 11.7764 17.1734 11.484 17.089 11.1714L17.0622 11.0591L17.0567 10.9413C17.055 10.8884 17.0542 10.8297 17.054 10.7563L17.0539 10.3525C17.0525 10.198 17.0479 10.0881 17.0372 9.96444C16.8513 8.01893 14.9973 6.55322 12.9769 6.55322ZM12.9341 7.39042H12.9769C14.5954 7.39042 16.0718 8.55766 16.2136 10.0412C16.222 10.1386 16.2258 10.2315 16.2269 10.3695L16.2285 10.9123C16.2303 10.9991 16.2337 11.0713 16.2396 11.1525L16.2473 11.2081L16.2862 11.3736C16.4016 11.8113 16.6088 12.2197 16.894 12.5717L16.9767 12.6687L16.9676 12.6535C17.1258 12.89 17.2159 13.1643 17.2285 13.4473L17.2281 13.5454C17.2377 13.939 17.1072 14.313 16.8602 14.6092C16.5339 14.9544 16.0674 15.1814 15.566 15.2275C13.8268 15.4163 12.0788 15.4163 10.3462 15.2282C9.83929 15.1794 9.37248 14.9523 9.02741 14.589C8.80371 14.3146 8.6746 13.9418 8.68271 13.5597L8.6828 13.4284L8.69329 13.3142C8.71853 13.1229 8.78242 12.9291 8.88146 12.7507L8.93169 12.6675C9.29987 12.2534 9.55255 11.7499 9.66384 11.2072L9.67247 11.1221L9.67638 10.5706L9.68602 10.2907C9.69039 10.2025 9.69598 10.1186 9.703 10.0373C9.84001 8.55773 11.3151 7.39042 12.9341 7.39042ZM8.93169 12.6675L8.90477 12.6974L8.93433 12.6632L8.93169 12.6675ZM14.52 17.1676C14.3421 17.0227 14.0818 17.0512 13.9386 17.2313C13.8766 17.3094 13.8047 17.3795 13.7248 17.4398C13.4537 17.6524 13.1154 17.7471 12.7791 17.707C12.4433 17.667 12.138 17.4961 11.9309 17.2329C11.7886 17.0521 11.5284 17.0223 11.3498 17.1663C11.1711 17.3104 11.1417 17.5738 11.284 17.7546C11.6275 18.191 12.1307 18.4728 12.6824 18.5385C13.2337 18.6041 13.7887 18.4488 14.2253 18.1062C14.3549 18.0085 14.4772 17.8893 14.583 17.7561C14.7262 17.576 14.698 17.3125 14.52 17.1676Z" fill="#B1B1B1"/>
</svg>
