<svg width="43" height="54" viewBox="0 0 43 54" fill="none" xmlns="http://www.w3.org/2000/svg">
<g clip-path="url(#clip0_5_10355)">
<path d="M42.9874 46.4082V9.04802C42.9874 8.53479 43.0885 7.88772 42.743 7.46884C42.736 7.4592 42.7284 7.4501 42.7201 7.4416C42.7146 7.4354 42.7087 7.42953 42.7026 7.42403L39.9098 4.6267L35.9646 0.675775C35.6537 0.364281 35.3851 0.0184401 34.9029 0.0028456C34.7194 -0.00307635 34.5343 0.0028456 34.351 0.0028456H3.18715C2.4797 0.0028456 1.80064 0.185833 1.2292 0.617345C0.446855 1.20796 0.0106405 2.12349 0.00315015 3.09943C0.00196746 3.25735 0.00315015 3.41388 0.00315015 3.57121V50.7815C0.00315015 51.2403 0.0622837 51.6896 0.242447 52.1169C0.720056 53.2557 1.84479 53.9851 3.07105 53.9977C3.60326 54.0033 4.13389 53.9977 4.66511 53.9977H39.641C39.9155 53.9977 40.184 53.9968 40.4574 53.9506C41.8766 53.7105 42.9464 52.4407 42.9864 51.008C42.9982 50.5804 42.9864 50.1512 42.9864 49.7235L42.9874 46.4082ZM35.8274 4.32902C35.8274 3.9287 35.8329 3.52778 35.8319 3.12707L35.9614 3.25676L37.0885 4.38568L38.4455 5.74437L39.625 6.92481L39.872 7.17235H37.1457C36.8437 7.17235 36.5624 7.1076 36.3178 6.92264C36.0024 6.68576 35.829 6.3107 35.8278 5.91985C35.826 5.39004 35.8274 4.85943 35.8274 4.32902ZM2.00249 2.434C2.35887 1.83963 2.94115 1.82957 3.53249 1.82957H34.0023C34.0003 3.20958 33.9804 4.59077 34.0023 5.97039C34.0256 7.40409 35.074 8.6854 36.4923 8.94577C36.8088 9.00381 37.124 8.99986 37.4437 8.99986H41.1617V37.7329H41.1601H40.0841H37.1816L32.8612 37.7314L27.6266 37.7296L21.8539 37.7274L16.0664 37.7252L10.6334 37.7235L6.07271 37.7217L2.77005 37.7189C2.45585 37.7189 2.14125 37.7164 1.82666 37.716V3.46738C1.82666 3.10654 1.80478 2.76287 2.0015 2.43479L2.00249 2.434ZM41.1633 50.9322C41.1467 51.6304 40.5997 52.1582 39.9073 52.1694C39.8138 52.1708 39.7202 52.1694 39.627 52.1694H3.77218C3.53564 52.1694 3.29911 52.1742 3.06454 52.1694C2.37464 52.1552 1.84006 51.6136 1.82666 50.9258C1.82548 50.8629 1.82666 50.7997 1.82666 50.7367V39.5547H2.22424L5.12656 39.5557L9.44692 39.5573L14.6817 39.5593L20.4542 39.5612L26.2417 39.5634L31.6748 39.5654L36.2354 39.567L39.5375 39.5681C40.0553 39.5681 40.5737 39.5749 41.0915 39.5681C41.1142 39.5681 41.1369 39.5681 41.1595 39.5681H41.1623V49.2144C41.1623 49.763 41.1487 50.3135 41.1623 50.8617C41.1629 50.8864 41.1623 50.9096 41.1623 50.9329L41.1633 50.9322Z" fill="#828282"/>
<path d="M13.7686 31.3231C15.3652 31.3231 17.7741 29.1884 19.5344 25.5924C21.3616 24.8706 23.6332 24.336 25.4259 24.001C26.8627 25.1064 28.4495 26.1659 29.218 26.1659C31.3469 26.1659 31.7929 24.9335 31.7929 23.9003C31.7929 21.8672 29.4745 21.8672 28.3596 21.8672C28.0134 21.8672 27.0848 21.9696 25.8694 22.1735C25.0749 21.5472 24.3197 20.9035 23.8167 20.3999C23.1628 19.7451 22.5804 19.1105 22.0742 18.5063C22.8626 16.0627 23.2098 14.8029 23.2098 14.1313C23.2098 11.2781 22.1804 10.6931 20.6349 10.6931C19.4606 10.6931 18.0599 11.305 18.0599 14.2136C18.0599 15.4967 18.7617 17.0532 20.1521 18.863C19.8119 19.903 19.4121 21.1024 18.9627 22.4556C18.7459 23.1044 18.5117 23.7053 18.2636 24.261C18.0617 24.3507 17.8659 24.4429 17.6762 24.5374C16.9937 24.879 16.3458 25.1862 15.7444 25.4716C13.0045 26.7711 11.1931 27.6306 11.1931 29.3278C11.1936 30.5596 12.5305 31.3231 13.7686 31.3231ZM28.3596 23.5873C29.6278 23.5873 29.9876 23.7114 30.0763 23.9003C30.0763 24.2865 30.0763 24.4467 29.2799 24.4517C29.0461 24.4013 28.5054 24.0823 27.8384 23.6275C28.0805 23.6003 28.2591 23.5869 28.3596 23.5869V23.5873ZM22.6038 21.6163C22.7647 21.7773 23.1636 22.14 23.6951 22.5942C22.6373 22.8249 21.5116 23.1112 20.4354 23.4528C20.489 23.3035 20.541 23.1521 20.5913 22.9988C20.9098 22.0418 21.1964 21.1828 21.4521 20.4084C21.8079 20.8015 22.1916 21.204 22.603 21.6159L22.6038 21.6163ZM19.7774 14.2138C19.7774 12.4124 20.3356 12.4124 20.6356 12.4124C21.2426 12.4124 21.4941 12.4124 21.4941 14.1315C21.4941 14.4941 21.2526 15.4006 20.8109 16.8161C20.1363 15.777 19.7766 14.8864 19.7766 14.2142L19.7774 14.2138ZM16.4801 27.0242C16.5914 26.9713 16.7046 26.9184 16.8195 26.8637C15.5304 28.7356 14.2554 29.6036 13.7686 29.6036C13.2781 29.6036 12.9462 29.3718 12.9101 29.3272C12.9101 28.7174 14.7257 27.8568 16.4801 27.0242Z" fill="#828282"/>
<path d="M14.7653 41.6419H10.7587V50.1908H12.231V46.988H14.7653C15.5768 46.988 16.2157 46.7604 16.6637 46.3118C17.1117 45.8631 17.339 45.2073 17.339 44.3628C17.339 43.5184 17.0958 42.8472 16.616 42.366C16.1362 41.8847 15.512 41.6419 14.7653 41.6419ZM15.4436 45.3779C15.2236 45.5982 14.9234 45.7053 14.5258 45.7053H12.231V42.925H14.5258C14.9234 42.925 15.2391 43.0478 15.4916 43.3001C15.7085 43.5182 15.8189 43.8757 15.8189 44.3628C15.8185 44.793 15.6959 45.125 15.4436 45.3779Z" fill="#828282"/>
<path d="M21.3994 41.6419H18.3482V50.1908H21.3994C22.4326 50.1908 23.2802 49.8667 23.9183 49.2277C24.6831 48.4616 25.071 47.3722 25.071 45.988C25.071 44.5417 24.6993 43.4357 23.966 42.7006C23.2645 41.998 22.4009 41.6419 21.3994 41.6419ZM22.6989 48.389C22.3504 48.738 21.9105 48.9077 21.3517 48.9077H19.8205V42.925H21.3517C21.877 42.925 22.3333 43.1259 22.7466 43.5393C23.2804 44.0739 23.5511 44.8976 23.5511 45.987C23.5511 47.0149 23.2645 47.8228 22.6989 48.389Z" fill="#828282"/>
<path d="M26.4152 50.1906H27.8872V46.5099H31.3241V45.2268H27.8872V42.9248H32.2787V41.6419H26.4152V50.1906Z" fill="#828282"/>
</g>
<defs>
<clipPath id="clip0_5_10355">
<rect width="43" height="54" fill="white"/>
</clipPath>
</defs>
</svg>
