<svg width="29" height="29" viewBox="0 0 29 29" fill="none" xmlns="http://www.w3.org/2000/svg">
<circle cx="14.3384" cy="14.4975" r="13.8846" fill="#00AF68"/>
<g clip-path="url(#clip0_16218_442)">
<path d="M7.55367 20.3074L7.1333 21.5678L8.39367 21.1474L12.3256 17.2155L11.4856 16.3755L7.55367 20.3074Z" fill="white"/>
<path d="M21.0458 11.4336L17.2676 7.65546C17.2306 7.61826 17.1844 7.59153 17.1336 7.578C17.0829 7.56447 17.0295 7.56462 16.9789 7.57843C16.9282 7.59224 16.8822 7.61922 16.8454 7.65663C16.8085 7.69403 16.7823 7.74053 16.7693 7.79138C16.6682 8.211 16.7262 8.71456 16.9015 9.21589C16.9397 9.322 16.9469 9.43681 16.9224 9.54689C16.8978 9.65697 16.8423 9.75778 16.7626 9.83753L13.2719 13.3282C13.1705 13.4277 13.0368 13.4875 12.8951 13.4969C12.7534 13.5063 12.6131 13.4647 12.4994 13.3795C11.1269 12.3635 9.82124 11.9164 8.93445 12.4682C8.89642 12.4919 8.86423 12.5238 8.8403 12.5617C8.81636 12.5995 8.80129 12.6423 8.79622 12.6868C8.79115 12.7313 8.79621 12.7764 8.81101 12.8186C8.82582 12.8609 8.84999 12.8993 8.88172 12.9309L15.7666 19.8158C15.7982 19.8475 15.8366 19.8717 15.8789 19.8865C15.9211 19.9013 15.9662 19.9063 16.0107 19.9013C16.0552 19.8962 16.098 19.8811 16.1358 19.8572C16.1737 19.8333 16.2056 19.8011 16.2293 19.763C16.7811 18.877 16.334 17.5713 15.318 16.1981C15.2329 16.0837 15.1918 15.9425 15.2021 15.8002C15.2125 15.658 15.2737 15.5243 15.3745 15.4234L18.8652 11.9327C18.9449 11.8529 19.0457 11.7975 19.1558 11.7729C19.2659 11.7483 19.3807 11.7556 19.4868 11.7938C19.9881 11.9691 20.4917 12.027 20.9113 11.926C20.9609 11.9123 21.0061 11.8858 21.0424 11.8494C21.0787 11.8129 21.1049 11.7676 21.1184 11.718C21.132 11.6684 21.1324 11.6161 21.1197 11.5662C21.1069 11.5163 21.0815 11.4707 21.0458 11.4336Z" fill="white"/>
</g>
<defs>
<clipPath id="clip0_16218_442">
<rect width="14" height="14" fill="white" transform="translate(7.1333 7.56781)"/>
</clipPath>
</defs>
</svg>
