<svg width="14" height="14" viewBox="0 0 14 14" fill="none" xmlns="http://www.w3.org/2000/svg">
<path d="M0.420371 12.7396L0 14L1.26037 13.5796L5.19226 9.64774L4.35225 8.80774L0.420371 12.7396Z" fill="#E0E0E0"/>
<path d="M13.9125 3.86579L10.1343 0.0876499C10.0973 0.0504491 10.0511 0.0237233 10.0003 0.0101926C9.94962 -0.0033381 9.89623 -0.00318983 9.84559 0.010621C9.79495 0.0244318 9.74887 0.0514123 9.71205 0.0888172C9.67523 0.126222 9.64897 0.172715 9.63595 0.223565C9.53494 0.643194 9.59288 1.14675 9.76815 1.64807C9.8064 1.75419 9.81365 1.869 9.78905 1.97908C9.76446 2.08916 9.70904 2.18997 9.62927 2.26972L6.13855 5.76044C6.03717 5.85987 5.90353 5.91971 5.76184 5.92911C5.62014 5.93851 5.47977 5.89685 5.36614 5.81168C3.99362 4.79566 2.68794 4.34855 1.80115 4.90038C1.76312 4.92404 1.73093 4.956 1.707 4.99385C1.68306 5.03171 1.66799 5.07449 1.66292 5.11899C1.65785 5.16349 1.66291 5.20856 1.67771 5.25083C1.69252 5.2931 1.71669 5.33148 1.74842 5.36309L8.6333 12.248C8.66491 12.2797 8.70329 12.3039 8.74556 12.3187C8.78783 12.3335 8.8329 12.3385 8.8774 12.3335C8.9219 12.3284 8.96468 12.3133 9.00254 12.2894C9.04039 12.2655 9.07234 12.2333 9.09601 12.1952C9.64784 11.3092 9.20073 10.0035 8.18471 8.63025C8.0996 8.51584 8.05847 8.37464 8.06883 8.23243C8.07919 8.09021 8.14036 7.95647 8.24115 7.85561L11.7319 4.36489C11.8116 4.28512 11.9124 4.2297 12.0225 4.20511C12.1326 4.18051 12.2474 4.18776 12.3535 4.22601C12.8548 4.40128 13.3584 4.45921 13.778 4.35821C13.8276 4.34444 13.8728 4.31803 13.9091 4.28157C13.9454 4.2451 13.9716 4.19984 13.9851 4.15019C13.9987 4.10055 13.9991 4.04824 13.9864 3.99839C13.9736 3.94853 13.9482 3.90284 13.9125 3.86579Z" fill="#E0E0E0"/>
</svg>
