<svg width="12" height="12" viewBox="0 0 12 12" fill="none" xmlns="http://www.w3.org/2000/svg">
<path d="M10.4514 11.0713L6.64136 7.26067C4.94647 8.46564 2.61099 8.1709 1.26861 6.58262C-0.0737668 4.99434 0.0248003 2.64239 1.49536 1.172C2.96553 -0.299035 5.31771 -0.398029 6.90629 0.944277C8.49486 2.28658 8.78977 4.6223 7.5847 6.31733L11.3947 10.128L10.452 11.0707L10.4514 11.0713ZM4.32336 1.33332C3.05916 1.33304 1.96849 2.22045 1.71168 3.45829C1.45487 4.69613 2.1025 5.94418 3.26248 6.44683C4.42246 6.94947 5.77596 6.56855 6.50352 5.5347C7.23109 4.50085 7.13274 3.09821 6.26803 2.176L6.67136 2.576L6.2167 2.12267L6.20869 2.11467C5.70989 1.61278 5.03096 1.33142 4.32336 1.33332Z" fill="#33AE71"/>
</svg>
