<svg width="24" height="24" viewBox="0 0 24 24" fill="none" xmlns="http://www.w3.org/2000/svg">
<path d="M21.0539 20.0462C21.3321 20.3245 21.3321 20.7756 21.0539 21.0539C20.7756 21.3321 20.3245 21.3321 20.0462 21.0539L16.6262 17.6339C16.348 17.3556 16.348 16.9045 16.6262 16.6262C16.9045 16.348 17.3556 16.348 17.6339 16.6262L21.0539 20.0462ZM10.29 17.8425C6.11892 17.8425 2.73755 14.4612 2.73755 10.29C2.73755 6.11892 6.11892 2.73755 10.29 2.73755C14.4612 2.73755 17.8425 6.11892 17.8425 10.29C17.8425 14.4612 14.4612 17.8425 10.29 17.8425ZM10.29 16.4175C13.6742 16.4175 16.4175 13.6742 16.4175 10.29C16.4175 6.90592 13.6742 4.16255 10.29 4.16255C6.90592 4.16255 4.16255 6.90592 4.16255 10.29C4.16255 13.6742 6.90592 16.4175 10.29 16.4175ZM6.77505 9.72005C6.77505 9.98238 6.56238 10.195 6.30005 10.195C6.03771 10.195 5.82505 9.98238 5.82505 9.72005C5.82505 7.5689 7.5689 5.82505 9.72005 5.82505C9.98238 5.82505 10.195 6.03771 10.195 6.30005C10.195 6.56238 9.98238 6.77505 9.72005 6.77505C8.09357 6.77505 6.77505 8.09357 6.77505 9.72005Z" fill="#BDBDBD"/>
</svg>
