<svg width="18" height="18" viewBox="0 0 18 18" fill="none" xmlns="http://www.w3.org/2000/svg">
<g clip-path="url(#clip0_16163_205)">
<path d="M10.1278 15.7474C5.78011 15.7474 2.25562 12.223 2.25562 7.87528C2.25562 3.5276 5.78008 0.00317383 10.1278 0.00317383C14.4754 0.00317383 17.9999 3.52763 17.9999 7.87532C17.9999 12.223 14.4754 15.7474 10.1278 15.7474ZM10.1278 2.25237C7.02228 2.25237 4.50481 4.76984 4.50481 7.87532C4.50481 10.9808 7.02228 13.4983 10.1278 13.4983C13.2332 13.4983 15.7507 10.9808 15.7507 7.87532C15.7507 4.76984 13.2332 2.25237 10.1278 2.25237Z" fill="white"/>
<path d="M1.13111 17.9966C0.832183 17.9984 0.54488 17.881 0.332659 17.6705C-0.108335 17.2331 -0.111242 16.5211 0.326147 16.0801C0.328318 16.0779 0.330488 16.0758 0.332659 16.0736L4.56111 11.8451C5.01761 11.4041 5.74517 11.4167 6.18616 11.8732C6.62716 12.3297 6.61456 13.0573 6.15806 13.4983L1.92957 17.6705C1.71735 17.881 1.43005 17.9984 1.13111 17.9966Z" fill="white"/>
</g>
<defs>
<clipPath id="clip0_16163_205">
<rect width="18" height="18" fill="white"/>
</clipPath>
</defs>
</svg>
