<svg width="17" height="16" viewBox="0 0 17 16" fill="none" xmlns="http://www.w3.org/2000/svg">
<path fill-rule="evenodd" clip-rule="evenodd" d="M4.76491 0.836146C4.52462 0.657162 4.18291 0.677049 3.96516 0.895808L0.633552 4.24284L0.57438 4.31171C0.396945 4.552 0.417508 4.89238 0.635554 5.10942L0.704417 5.16859C0.944712 5.34602 1.28509 5.32546 1.50213 5.10741L3.78669 2.81183V12.4545L3.79228 12.5376C3.83286 12.8367 4.08924 13.0672 4.39945 13.0672C4.73787 13.0672 5.01221 12.7929 5.01221 12.4545V2.81214L7.29676 5.10741L7.36535 5.1669C7.60482 5.34545 7.94529 5.32646 8.16333 5.10942C8.40318 4.87067 8.40408 4.48269 8.16534 4.24284L4.83373 0.895808L4.83038 0.892902C4.81118 0.873913 4.79074 0.856183 4.76918 0.839848L4.76491 0.836146ZM13.1183 3.4624C13.0777 3.16331 12.8213 2.93279 12.5111 2.93279C12.1727 2.93279 11.8984 3.20713 11.8984 3.54555V13.1881L9.61329 10.8926L9.54471 10.8331C9.30523 10.6546 8.96477 10.6736 8.74672 10.8906C8.50687 11.1294 8.50597 11.5173 8.74472 11.7572L12.0763 15.1042L12.0844 15.1112C12.101 15.1273 12.1184 15.1425 12.1367 15.1566L12.1451 15.1639C12.3787 15.3379 12.7081 15.3239 12.9263 15.1221C12.9346 15.1145 12.9426 15.1067 12.9504 15.0987L16.2765 11.7572L16.3357 11.6883C16.5131 11.448 16.4925 11.1077 16.2745 10.8906C16.0346 10.6519 15.6467 10.6528 15.4079 10.8926L13.1239 13.1865V3.54555L13.1183 3.4624Z" fill="white"/>
</svg>
