<svg width="23" height="21" viewBox="0 0 23 21" fill="none" xmlns="http://www.w3.org/2000/svg">
<path d="M1.4375 5.00016H3.35432C4.14674 5.00016 4.79182 4.32703 4.79182 3.50016V1.5C4.79182 0.673125 4.14674 0 3.35432 0H1.4375C0.645078 0 0 0.673125 0 1.5V3.50016C0 4.32703 0.645078 5.00016 1.4375 5.00016Z" fill="white"/>
<path d="M3.35432 12.9998H1.4375C0.645078 12.9998 0 12.3267 0 11.4998V9.49963C0 8.67276 0.645078 7.99963 1.4375 7.99963H3.35432C4.14674 7.99963 4.79182 8.67276 4.79182 9.49963V11.4998C4.79182 12.3271 4.14674 12.9998 3.35432 12.9998Z" fill="white"/>
<path d="M1.4375 21H3.35432C4.14674 21 4.79182 20.3269 4.79182 19.5V17.4999C4.79182 16.673 4.14674 15.9999 3.35432 15.9999H1.4375C0.645078 15.9999 0 16.673 0 17.4999V19.5C0 20.3269 0.645078 21 1.4375 21Z" fill="white"/>
<path d="M22.0417 18.5392C22.0417 19.0457 21.6312 19.4562 21.1248 19.4562H8.58374C8.07731 19.4562 7.66675 19.0457 7.66675 18.5392C7.66675 18.0043 8.10041 17.5707 8.63534 17.5707H21.0732C21.6081 17.5707 22.0417 18.0043 22.0417 18.5392Z" fill="white"/>
<path d="M22.0417 10.9971C22.0417 11.5035 21.6312 11.9141 21.1248 11.9141H8.58374C8.07731 11.9141 7.66675 11.5036 7.66675 10.9971C7.66675 10.4622 8.10041 10.0286 8.63534 10.0286H21.0732C21.6081 10.0286 22.0417 10.4622 22.0417 10.9971Z" fill="white"/>
<path d="M22.0417 2.51226C22.0417 3.01869 21.6312 3.42922 21.1248 3.42922H8.58374C8.07731 3.42922 7.66675 3.0187 7.66675 2.51226C7.66675 1.97733 8.10041 1.5437 8.63534 1.5437H21.0732C21.6081 1.5437 22.0417 1.97734 22.0417 2.51226Z" fill="white"/>
</svg>
