<svg width="102" height="37" viewBox="0 0 102 37" fill="none" xmlns="http://www.w3.org/2000/svg">
<g clip-path="url(#clip0_16163_244)">
<path d="M22.3546 32.4113C22.28 30.997 22.5785 29.7516 23.042 28.6281H21.1644H10.8729C9.31344 28.6281 8.05253 27.3002 8.05253 25.658C8.05253 24.0197 9.31344 22.6919 10.8729 22.6919H21.1644H22.005V22.6762V14.3199V14.3042H21.1644H10.8729C9.31344 14.3042 8.05253 12.9763 8.05253 11.3381C8.05253 9.69983 9.31344 8.37195 10.8729 8.37195H21.1644H23.863V0H10.8729V0.00392865C10.8415 0.00785729 10.8061 0 10.7747 0C4.82366 0 0 5.07581 0 11.3381C0 14.0567 0.907382 16.5475 2.42361 18.5C0.907382 20.4525 0 22.9433 0 25.658C0 31.9203 4.82366 36.9961 10.7747 36.9961C10.8061 36.9961 10.8375 36.9921 10.8729 36.9921V36.9961H25.9134C24.2283 36.2889 22.4842 34.8785 22.3546 32.4113Z" fill="white"/>
<path d="M34.0525 28.4238L33.4515 29.2174C32.7169 30.0817 30.9375 32.7257 31.4992 34.5093C31.7977 35.4561 32.7562 36.1043 34.3471 36.4461L36.9396 37.0001H48.9005V28.4238H34.0525Z" fill="#5DBC56"/>
<path d="M33.0468 28.8402L33.365 28.4238L33.581 28.1409L33.797 27.8581L41.7396 17.4197L42.5134 15.53C42.5252 15.4946 43.7979 12.336 42.6902 10.4306C42.1874 9.56236 41.2211 9.0752 39.8188 8.97699C39.3003 8.94163 38.6403 8.91806 37.9412 8.90234C36.1932 11.2202 27.8971 22.2322 26.5969 24.0787C25.6974 25.3555 24.4286 26.8288 23.6312 28.6281C23.1363 29.7438 22.822 30.9813 22.8967 32.3799C23.0892 36.0179 27.0958 36.8507 27.901 36.9765C27.9914 36.9922 28.0542 37 28.0542 37H28.4038H28.6709H28.942H34.2448C27.3865 35.5346 33.0468 28.8402 33.0468 28.8402Z" fill="#5DBC56"/>
<path d="M24.4247 8.37195H25.1003C26.538 8.37195 29.8258 8.36802 31.3263 8.34052C32.2023 8.3248 33.581 8.30516 35.0226 8.30516C35.9182 8.30516 36.8413 8.31302 37.6819 8.32873C37.7958 8.33266 37.9097 8.33266 38.0197 8.33659C38.114 8.34052 38.2083 8.34052 38.2986 8.34445C38.8839 8.36016 39.4181 8.38373 39.8502 8.41123C45.8326 8.82374 43.0005 15.7499 43.0005 15.7499C43.0516 15.6792 43.1026 15.6164 43.1537 15.5496C43.7468 14.7756 44.3085 14.0567 44.8349 13.377C45.0117 13.1492 45.1845 12.9213 45.3495 12.7013C47.2507 10.1831 48.4801 8.1323 48.2837 5.40189C48.0127 1.66967 44.6739 0 41.9085 0H24.4011H24.4247V8.37195Z" fill="#5DBC56"/>
<path d="M59.7615 19.7848V21.922H53.0955L52.7734 20.6295C53.0641 20.5352 53.3391 20.4841 53.5905 20.4527V12.6936C53.343 12.6779 53.068 12.6307 52.7734 12.5168L53.0955 11.24H59.6475V13.3615L58.1627 13.8093C58.0449 13.3968 57.986 13.0275 57.9585 12.6936H55.366V15.7697H57.5067C57.5342 15.5144 57.5814 15.2119 57.6678 14.8936L58.8462 15.2276V17.7615L57.6678 18.1112C57.5814 17.793 57.5382 17.4905 57.5067 17.2194H55.366V20.4723H58.0724C58.0999 20.1384 58.1588 19.7534 58.2766 19.3566L59.7615 19.7848Z" fill="white"/>
<path d="M65.2803 14.3044C66.5177 14.3044 67.1855 15.0234 67.1855 16.3277V20.5667C67.4054 20.5981 67.6647 20.6296 67.9436 20.7278L67.6529 21.9221H65.5121V16.807C65.5121 16.4731 65.3943 15.8995 64.7854 15.8995C64.2473 15.8995 63.8112 16.1077 63.1985 16.4102V20.5706C63.4184 20.6021 63.6659 20.6335 63.9409 20.7317L63.6502 21.926H61.0734L60.7827 20.7317C61.0577 20.6374 61.3051 20.606 61.5251 20.5706V15.8484C61.3051 15.817 61.0577 15.7855 60.7827 15.6873L61.0734 14.493H63.1121V15.098C63.8387 14.7012 64.6126 14.3044 65.2803 14.3044Z" fill="white"/>
<path d="M74.4248 18.8302H70.4928C70.4928 19.4824 70.536 20.7592 71.6713 20.7592C72.2958 20.7592 73.2268 20.4567 74.0281 20.1542L74.3502 21.4624C73.49 21.7964 72.5472 22.1146 71.5848 22.1146C70.7403 22.1146 70.159 21.9378 69.7229 21.5567C68.9059 20.8731 68.7488 19.946 68.7488 18.2095C68.7488 15.5813 69.5776 14.3044 71.5888 14.3044C73.596 14.3044 74.4288 15.5813 74.4288 18.2095V18.8302H74.4248ZM72.7043 17.4749C72.7043 16.7402 72.4844 15.6598 71.5848 15.6598C70.6814 15.6598 70.4928 16.7441 70.4928 17.4749H72.7043Z" fill="white"/>
<path d="M77.8149 16.3434V20.5667C78.0624 20.5982 78.3256 20.6296 78.6163 20.7278L78.3256 21.9221H75.6898L75.3992 20.7278C75.6741 20.6335 75.9216 20.6021 76.1416 20.5667V15.8484C75.9216 15.817 75.6741 15.7856 75.3992 15.6873L75.6898 14.493H77.7285V15.0352C78.412 14.6698 79.1426 14.3005 79.724 14.3005V15.9427C79.1112 15.9466 78.4709 16.0252 77.8149 16.3434Z" fill="white"/>
<path d="M86.158 23.1005C86.158 24.727 85.3999 25.6973 83.6558 25.6973C82.607 25.6973 81.6015 25.332 80.7569 24.9627L81.0751 23.6544C81.9471 24.0198 82.7642 24.3223 83.5498 24.3223C84.4807 24.3223 84.4807 23.6034 84.4807 22.7587V21.7058C83.9583 21.8983 83.3612 22.1026 82.8349 22.1026C80.7255 22.1026 80.3013 20.429 80.3013 18.5629C80.3013 16.1389 80.5487 14.2925 82.8349 14.2925C83.4909 14.2925 84.0997 14.5478 84.6418 14.8346V14.4968H86.6058L86.8965 15.6911C86.6333 15.7854 86.3741 15.8168 86.1541 15.8522V23.1005H86.158ZM84.4847 16.0722C84.1076 15.8325 83.699 15.6596 83.3494 15.6596C82.2142 15.6596 82.0689 16.7282 82.0689 18.4333C82.0689 19.549 82.2142 20.759 83.1609 20.759C83.5969 20.759 84.0329 20.598 84.4847 20.4094V16.0722Z" fill="white"/>
<path d="M92.7533 15.8483C92.5491 15.8326 92.3291 15.7854 92.0973 15.7226L92.388 14.4968H94.847L95.1376 15.6911C94.8745 15.7854 94.6152 15.8169 94.3952 15.8522L91.6142 24.1731C91.2489 25.1592 90.42 25.7013 89.387 25.7013C88.731 25.7013 88.2675 25.5088 87.8 25.2888L88.1221 23.9806C88.5306 24.1574 88.8488 24.3145 89.3005 24.3145C89.6776 24.3145 89.984 24.0277 90.1451 23.6466L90.7264 21.9259H90.3925L88.3264 15.8522C88.1064 15.8208 87.8589 15.7893 87.584 15.6911L87.8747 14.4968H89.6501L91.5003 20.0441L92.7533 15.8483Z" fill="white"/>
<path d="M53.9401 34.0298C54.0422 34.3952 54.1012 34.7331 54.1444 35.1613C54.5961 35.2399 55.1342 35.3381 55.6567 35.3381C57.169 35.3381 57.7818 34.5563 57.7818 33.5388C57.7818 31.0834 52.7735 32.918 52.7735 28.5337C52.7735 26.7658 54.2426 25.7129 56.0338 25.7129C57.0983 25.7129 58.2178 25.9368 59.2823 26.2865V27.9915L57.7975 28.4237C57.6953 28.0426 57.6364 27.7204 57.6089 27.3079C57.1572 27.2136 56.619 27.1626 56.2262 27.1626C55.4092 27.1626 54.655 27.6419 54.655 28.5179C54.655 31.3073 59.6633 29.2526 59.6633 33.5702C59.6633 35.7388 58.1628 36.7877 56.0534 36.7877C54.8004 36.7877 53.6651 36.6463 52.4592 36.2456V34.4777L53.9401 34.0298Z" fill="white"/>
<path d="M66.2271 33.5072H62.2951C62.2951 34.1594 62.3383 35.4362 63.4735 35.4362C64.0981 35.4362 65.029 35.1337 65.8304 34.8312L66.1485 36.1394C65.2883 36.4734 64.3456 36.7916 63.3832 36.7916C62.5386 36.7916 61.9573 36.6148 61.5213 36.2337C60.7042 35.5462 60.5471 34.623 60.5471 32.8865C60.5471 30.2583 61.3759 28.9814 63.3871 28.9814C65.3943 28.9814 66.2271 30.2543 66.2271 32.8865V33.5072ZM64.5105 32.1519C64.5105 31.4172 64.2906 30.3329 63.391 30.3329C62.4876 30.3329 62.299 31.4172 62.299 32.1519H64.5105Z" fill="white"/>
<path d="M69.6208 31.0204V35.2437C69.8683 35.2752 70.1315 35.3066 70.4222 35.4048L70.1315 36.5991H67.4958L67.2051 35.4048C67.48 35.3105 67.7275 35.2752 67.9475 35.2437V30.5254C67.7275 30.494 67.48 30.4626 67.2051 30.3644L67.4958 29.17H69.5344V29.7122C70.2179 29.3468 70.9485 28.9775 71.5299 28.9775V30.6197C70.9171 30.6197 70.2768 30.7022 69.6208 31.0204Z" fill="white"/>
<path d="M77.0019 30.5255C76.7976 30.5098 76.5776 30.4627 76.3459 30.3959L76.6365 29.1702H79.0523L79.343 30.3645C79.0798 30.4588 78.8206 30.4941 78.6006 30.5255L76.5776 36.5992H74.5979L72.5317 30.5255C72.3117 30.4941 72.0643 30.4627 71.7893 30.3645L72.08 29.1702H73.8123L75.7056 34.8431L77.0019 30.5255Z" fill="white"/>
<path d="M82.446 35.2438C82.666 35.2752 82.9135 35.3066 83.1884 35.4049L82.8978 36.5992H80.3209L80.0303 35.4049C80.3052 35.3106 80.5527 35.2752 80.7727 35.2438V30.5255C80.5527 30.494 80.3052 30.4626 80.0303 30.3644L80.3209 29.1701H82.446V35.2438ZM81.6015 28.1997C82.1986 28.1997 82.6935 27.6733 82.6935 27.0211C82.6935 26.369 82.1986 25.8425 81.6015 25.8425C81.0201 25.8425 80.5252 26.369 80.5252 27.0211C80.5252 27.6733 81.0201 28.1997 81.6015 28.1997Z" fill="white"/>
<path d="M87.0025 30.3172C86.7825 30.3172 86.4918 30.4272 86.2876 30.6354C85.8516 31.1933 85.8516 32.199 85.8516 32.914C85.8516 33.6644 85.8516 34.6033 86.2601 35.1298C86.4486 35.3223 86.7118 35.4323 86.975 35.4323C87.7881 35.4323 88.5462 35.1612 89.2179 34.9058L89.54 36.2141C88.6248 36.5637 87.7056 36.7877 86.8886 36.7877C86.2915 36.7877 85.7259 36.6934 85.2427 36.3594C84.3118 35.723 84.0918 34.5758 84.0918 32.8865C84.0918 31.3897 84.2803 30.3211 84.9795 29.6493C85.4588 29.1857 86.0715 28.9814 86.8846 28.9814C87.5995 28.9814 88.4284 29.1425 89.375 29.4922V31.3072H88.283C88.2084 31.0676 88.1652 30.7965 88.1377 30.4783C87.7449 30.384 87.3953 30.3172 87.0025 30.3172Z" fill="white"/>
<path d="M95.9861 33.5072H92.0541C92.0541 34.1594 92.0973 35.4362 93.2325 35.4362C93.8571 35.4362 94.7881 35.1337 95.5894 34.8312L95.9115 36.1394C95.0512 36.4734 94.1085 36.7916 93.1461 36.7916C92.3016 36.7916 91.7202 36.6148 91.2842 36.2337C90.4672 35.5462 90.3101 34.623 90.3101 32.8865C90.3101 30.2583 91.1389 28.9814 93.15 28.9814C95.1573 28.9814 95.99 30.2543 95.99 32.8865V33.5072H95.9861ZM94.2695 32.1519C94.2695 31.4172 94.0496 30.3329 93.15 30.3329C92.2466 30.3329 92.058 31.4172 92.058 32.1519H94.2695Z" fill="white"/>
<path d="M96.8306 36.1512V34.399H97.9226C97.9972 34.6387 98.0404 34.9098 98.0679 35.228C98.4607 35.338 98.8535 35.4362 99.2895 35.4362C100.032 35.4362 100.236 35.0394 100.236 34.5287C100.236 32.918 96.9759 33.8608 96.9759 31.1658C96.9759 29.6532 98.2407 28.9814 99.3327 28.9814C100.032 28.9814 100.833 29.1897 101.78 29.5393V31.2758H100.688C100.613 31.0361 100.57 30.7651 100.543 30.4468C100.22 30.3683 99.8866 30.3211 99.6274 30.3211C99.1049 30.3211 98.7396 30.6079 98.7396 31.0872C98.7396 32.6508 102 31.6765 102 34.4658C102 36.218 100.763 36.7916 99.6706 36.7916C98.7671 36.7877 97.8047 36.5009 96.8306 36.1512Z" fill="white"/>
</g>
<defs>
<clipPath id="clip0_16163_244">
<rect width="102" height="37" fill="white"/>
</clipPath>
</defs>
</svg>
